# xmcd
#
# Track frame offsets:
#	150
#	17390
#	38956
#	58047
#	70230
#	86920
#	104536
#	117128
#	133225
#	151882
#	165388
#
# Disc length: 2433 seconds
#
# Revision: 0
# Processed by: cddbd v1.5.2PL0 Copyright (c) Steve Scherf et al.
# Submitted via: EasyCDDAExtractor 2010.6.0.0
#
DISCID=8d097f0b
DTITLE=Red June - Remember Me Well
DYEAR=2010
DGENRE=Blues
TTITLE0=Biscuits and Honey
TTITLE1=A Quiet Mind
TTITLE2=McKinney Blues
TTITLE3=Callahan
TTITLE4=Home Is A Railroad
TTITLE5=Run Boy Run
TTITLE6=Run Around
TTITLE7=Comes A Time
TTITLE8=Phoenix
TTITLE9=San Juan Hill
TTITLE10=Come Patience
EXTD=
EXTT0=
EXTT1=
EXTT2=
EXTT3=
EXTT4=
EXTT5=
EXTT6=
EXTT7=
EXTT8=
EXTT9=
EXTT10=
PLAYORDER=
